<svg id="visual" viewBox="0 0 900 200" width="900" height="200" xmlns="http://www.w3.org/2000/svg" xmlns:xlink="http://www.w3.org/1999/xlink" version="1.1"><rect x="0" y="0" width="900" height="200" fill="#ffffff"></rect><path d="M0 149L900 147L900 0L0 0Z" fill="#697f84"></path><path d="M0 133L900 133L900 0L0 0Z" fill="#607579"></path><path d="M0 121L900 120L900 0L0 0Z" fill="#576a6f"></path><path d="M0 112L900 110L900 0L0 0Z" fill="#4e6065"></path><path d="M0 98L900 99L900 0L0 0Z" fill="#46565b"></path><path d="M0 86L900 87L900 0L0 0Z" fill="#3d4d51"></path><path d="M0 74L900 75L900 0L0 0Z" fill="#354347"></path><path d="M0 59L900 63L900 0L0 0Z" fill="#2d3a3e"></path><path d="M0 47L900 48L900 0L0 0Z" fill="#253134"></path><path d="M0 34L900 36L900 0L0 0Z" fill="#1d282b"></path><path d="M0 24L900 25L900 0L0 0Z" fill="#162022"></path><path d="M0 13L900 9L900 0L0 0Z" fill="#0e181a"></path></svg>