<svg id="visual" viewBox="0 0 960 540" width="960" height="540" xmlns="http://www.w3.org/2000/svg" xmlns:xlink="http://www.w3.org/1999/xlink" version="1.1"><rect x="0" y="0" width="960" height="540" fill="#fff"></rect><path d="M0 436L160 436L160 330L320 330L320 494L480 494L480 381L640 381L640 441L800 441L800 481L960 481L960 411L960 0L960 0L800 0L800 0L640 0L640 0L480 0L480 0L320 0L320 0L160 0L160 0L0 0Z" fill="#e0e0e0"></path><path d="M0 211L160 211L160 227L320 227L320 294L480 294L480 188L640 188L640 265L800 265L800 330L960 330L960 320L960 0L960 0L800 0L800 0L640 0L640 0L480 0L480 0L320 0L320 0L160 0L160 0L0 0Z" fill="#6e7475"></path><path d="M0 68L160 68L160 149L320 149L320 134L480 134L480 86L640 86L640 156L800 156L800 193L960 193L960 218L960 0L960 0L800 0L800 0L640 0L640 0L480 0L480 0L320 0L320 0L160 0L160 0L0 0Z" fill="#0e181a"></path></svg>