<svg id="visual" viewBox="0 0 900 200" width="900" height="200" xmlns="http://www.w3.org/2000/svg" xmlns:xlink="http://www.w3.org/1999/xlink" version="1.1"><rect x="0" y="0" width="900" height="200" fill="#ffffff"></rect><path d="M0 49L900 51L900 201L0 201Z" fill="#ffffff"></path><path d="M0 65L900 65L900 201L0 201Z" fill="#f0f1f2"></path><path d="M0 77L900 78L900 201L0 201Z" fill="#e1e4e5"></path><path d="M0 86L900 88L900 201L0 201Z" fill="#d3d7d8"></path><path d="M0 100L900 99L900 201L0 201Z" fill="#c4c9cb"></path><path d="M0 112L900 111L900 201L0 201Z" fill="#b6bcbe"></path><path d="M0 124L900 123L900 201L0 201Z" fill="#a8b0b2"></path><path d="M0 139L900 135L900 201L0 201Z" fill="#9aa3a5"></path><path d="M0 151L900 150L900 201L0 201Z" fill="#8d9699"></path><path d="M0 164L900 162L900 201L0 201Z" fill="#7f8a8d"></path><path d="M0 174L900 173L900 201L0 201Z" fill="#727e81"></path><path d="M0 185L900 189L900 201L0 201Z" fill="#657275"></path></svg>