<svg id="visual" viewBox="0 0 960 540" width="960" height="540" xmlns="http://www.w3.org/2000/svg" xmlns:xlink="http://www.w3.org/1999/xlink" version="1.1"><rect x="0" y="0" width="960" height="540" fill="#fff"></rect><path d="M724 0L815 0L815 45L848 45L848 90L806 90L806 135L826 135L826 180L709 180L709 225L908 225L908 270L761 270L761 315L819 315L819 360L921 360L921 405L816 405L816 450L814 450L814 495L693 495L693 540L0 540L0 495L0 495L0 450L0 450L0 405L0 405L0 360L0 360L0 315L0 315L0 270L0 270L0 225L0 225L0 180L0 180L0 135L0 135L0 90L0 90L0 45L0 45L0 0L0 0Z" fill="#c9c9c9"></path><path d="M678 0L722 0L722 45L600 45L600 90L578 90L578 135L750 135L750 180L763 180L763 225L792 225L792 270L667 270L667 315L814 315L814 360L707 360L707 405L599 405L599 450L654 450L654 495L797 495L797 540L0 540L0 495L0 495L0 450L0 450L0 405L0 405L0 360L0 360L0 315L0 315L0 270L0 270L0 225L0 225L0 180L0 180L0 135L0 135L0 90L0 90L0 45L0 45L0 0L0 0Z" fill="#afb0b1"></path><path d="M696 0L531 0L531 45L499 45L499 90L569 90L569 135L554 135L554 180L601 180L601 225L632 225L632 270L631 270L631 315L647 315L647 360L566 360L566 405L678 405L678 450L568 450L568 495L575 495L575 540L0 540L0 495L0 495L0 450L0 450L0 405L0 405L0 360L0 360L0 315L0 315L0 270L0 270L0 225L0 225L0 180L0 180L0 135L0 135L0 90L0 90L0 45L0 45L0 0L0 0Z" fill="#959899"></path><path d="M594 0L505 0L505 45L484 45L484 90L437 90L437 135L540 135L540 180L535 180L535 225L449 225L449 270L594 270L594 315L583 315L583 360L568 360L568 405L514 405L514 450L555 450L555 495L520 495L520 540L0 540L0 495L0 495L0 450L0 450L0 405L0 405L0 360L0 360L0 315L0 315L0 270L0 270L0 225L0 225L0 180L0 180L0 135L0 135L0 90L0 90L0 45L0 45L0 0L0 0Z" fill="#7c8081"></path><path d="M535 0L363 0L363 45L413 45L413 90L345 90L345 135L491 135L491 180L482 180L482 225L522 225L522 270L405 270L405 315L449 315L449 360L484 360L484 405L379 405L379 450L507 450L507 495L510 495L510 540L0 540L0 495L0 495L0 450L0 450L0 405L0 405L0 360L0 360L0 315L0 315L0 270L0 270L0 225L0 225L0 180L0 180L0 135L0 135L0 90L0 90L0 45L0 45L0 0L0 0Z" fill="#64696b"></path><path d="M265 0L277 0L277 45L411 45L411 90L308 90L308 135L427 135L427 180L257 180L257 225L378 225L378 270L263 270L263 315L413 315L413 360L447 360L447 405L390 405L390 450L373 450L373 495L383 495L383 540L0 540L0 495L0 495L0 450L0 450L0 405L0 405L0 360L0 360L0 315L0 315L0 270L0 270L0 225L0 225L0 180L0 180L0 135L0 135L0 90L0 90L0 45L0 45L0 0L0 0Z" fill="#4d5355"></path><path d="M357 0L359 0L359 45L271 45L271 90L312 90L312 135L308 135L308 180L207 180L207 225L351 225L351 270L346 270L346 315L208 315L208 360L185 360L185 405L357 405L357 450L234 450L234 495L253 495L253 540L0 540L0 495L0 495L0 450L0 450L0 405L0 405L0 360L0 360L0 315L0 315L0 270L0 270L0 225L0 225L0 180L0 180L0 135L0 135L0 90L0 90L0 45L0 45L0 0L0 0Z" fill="#373e40"></path><path d="M227 0L204 0L204 45L130 45L130 90L227 90L227 135L143 135L143 180L156 180L156 225L159 225L159 270L244 270L244 315L135 315L135 360L151 360L151 405L264 405L264 450L209 450L209 495L249 495L249 540L0 540L0 495L0 495L0 450L0 450L0 405L0 405L0 360L0 360L0 315L0 315L0 270L0 270L0 225L0 225L0 180L0 180L0 135L0 135L0 90L0 90L0 45L0 45L0 0L0 0Z" fill="#222a2d"></path><path d="M56 0L39 0L39 45L122 45L122 90L137 90L137 135L37 135L37 180L170 180L170 225L64 225L64 270L99 270L99 315L118 315L118 360L43 360L43 405L39 405L39 450L134 450L134 495L119 495L119 540L0 540L0 495L0 495L0 450L0 450L0 405L0 405L0 360L0 360L0 315L0 315L0 270L0 270L0 225L0 225L0 180L0 180L0 135L0 135L0 90L0 90L0 45L0 45L0 0L0 0Z" fill="#0e181a"></path></svg>