<svg id="visual" viewBox="0 0 400 100" width="400" height="100" xmlns="http://www.w3.org/2000/svg" xmlns:xlink="http://www.w3.org/1999/xlink" version="1.1"><rect x="0" y="0" width="400" height="100" fill="#fff"></rect><path d="M0 28L67 28L67 22L133 22L133 29L200 29L200 26L267 26L267 20L333 20L333 23L400 23L400 10L400 101L400 101L333 101L333 101L267 101L267 101L200 101L200 101L133 101L133 101L67 101L67 101L0 101Z" fill="#e2e2e2"></path><path d="M0 36L67 36L67 32L133 32L133 40L200 40L200 41L267 41L267 40L333 40L333 48L400 48L400 44L400 101L400 101L333 101L333 101L267 101L267 101L200 101L200 101L133 101L133 101L67 101L67 101L0 101Z" fill="#949899"></path><path d="M0 54L67 54L67 68L133 68L133 61L200 61L200 52L267 52L267 60L333 60L333 59L400 59L400 72L400 101L400 101L333 101L333 101L267 101L267 101L200 101L200 101L133 101L133 101L67 101L67 101L0 101Z" fill="#4c5455"></path><path d="M0 68L67 68L67 87L133 87L133 72L200 72L200 79L267 79L267 71L333 71L333 86L400 86L400 85L400 101L400 101L333 101L333 101L267 101L267 101L200 101L200 101L133 101L133 101L67 101L67 101L0 101Z" fill="#0e181a"></path></svg>