<svg id="visual" viewBox="0 0 960 540" width="960" height="540" xmlns="http://www.w3.org/2000/svg" xmlns:xlink="http://www.w3.org/1999/xlink" version="1.1"><rect x="0" y="0" width="960" height="540" fill="#fff"></rect><path d="M0 239L160 239L160 198L320 198L320 69L480 69L480 99L640 99L640 240L800 240L800 214L960 214L960 62L960 541L960 541L800 541L800 541L640 541L640 541L480 541L480 541L320 541L320 541L160 541L160 541L0 541Z" fill="#e3e3e3"></path><path d="M0 218L160 218L160 239L320 239L320 352L480 352L480 201L640 201L640 316L800 316L800 321L960 321L960 361L960 541L960 541L800 541L800 541L640 541L640 541L480 541L480 541L320 541L320 541L160 541L160 541L0 541Z" fill="#707576"></path><path d="M0 319L160 319L160 414L320 414L320 323L480 323L480 452L640 452L640 496L800 496L800 445L960 445L960 453L960 541L960 541L800 541L800 541L640 541L640 541L480 541L480 541L320 541L320 541L160 541L160 541L0 541Z" fill="#0e181a"></path></svg>