<svg id="visual" viewBox="0 0 960 540" width="960" height="540" xmlns="http://www.w3.org/2000/svg" xmlns:xlink="http://www.w3.org/1999/xlink" version="1.1"><rect x="0" y="0" width="960" height="540" fill="#fff"></rect><path d="M238 540L147 540L147 495L114 495L114 450L156 450L156 405L136 405L136 360L253 360L253 315L54 315L54 270L201 270L201 225L143 225L143 180L41 180L41 135L146 135L146 90L148 90L148 45L269 45L269 0L960 0L960 45L960 45L960 90L960 90L960 135L960 135L960 180L960 180L960 225L960 225L960 270L960 270L960 315L960 315L960 360L960 360L960 405L960 405L960 450L960 450L960 495L960 495L960 540L960 540Z" fill="#c9c9c9"></path><path d="M284 540L240 540L240 495L362 495L362 450L384 450L384 405L212 405L212 360L199 360L199 315L170 315L170 270L295 270L295 225L148 225L148 180L255 180L255 135L363 135L363 90L308 90L308 45L165 45L165 0L960 0L960 45L960 45L960 90L960 90L960 135L960 135L960 180L960 180L960 225L960 225L960 270L960 270L960 315L960 315L960 360L960 360L960 405L960 405L960 450L960 450L960 495L960 495L960 540L960 540Z" fill="#afb0b1"></path><path d="M266 540L431 540L431 495L463 495L463 450L393 450L393 405L408 405L408 360L361 360L361 315L330 315L330 270L331 270L331 225L315 225L315 180L396 180L396 135L284 135L284 90L394 90L394 45L387 45L387 0L960 0L960 45L960 45L960 90L960 90L960 135L960 135L960 180L960 180L960 225L960 225L960 270L960 270L960 315L960 315L960 360L960 360L960 405L960 405L960 450L960 450L960 495L960 495L960 540L960 540Z" fill="#959899"></path><path d="M368 540L457 540L457 495L478 495L478 450L525 450L525 405L422 405L422 360L427 360L427 315L513 315L513 270L368 270L368 225L379 225L379 180L394 180L394 135L448 135L448 90L407 90L407 45L442 45L442 0L960 0L960 45L960 45L960 90L960 90L960 135L960 135L960 180L960 180L960 225L960 225L960 270L960 270L960 315L960 315L960 360L960 360L960 405L960 405L960 450L960 450L960 495L960 495L960 540L960 540Z" fill="#7c8081"></path><path d="M427 540L599 540L599 495L549 495L549 450L617 450L617 405L471 405L471 360L480 360L480 315L440 315L440 270L557 270L557 225L513 225L513 180L478 180L478 135L583 135L583 90L455 90L455 45L452 45L452 0L960 0L960 45L960 45L960 90L960 90L960 135L960 135L960 180L960 180L960 225L960 225L960 270L960 270L960 315L960 315L960 360L960 360L960 405L960 405L960 450L960 450L960 495L960 495L960 540L960 540Z" fill="#64696b"></path><path d="M697 540L685 540L685 495L551 495L551 450L654 450L654 405L535 405L535 360L705 360L705 315L584 315L584 270L699 270L699 225L549 225L549 180L515 180L515 135L572 135L572 90L589 90L589 45L579 45L579 0L960 0L960 45L960 45L960 90L960 90L960 135L960 135L960 180L960 180L960 225L960 225L960 270L960 270L960 315L960 315L960 360L960 360L960 405L960 405L960 450L960 450L960 495L960 495L960 540L960 540Z" fill="#4d5355"></path><path d="M605 540L603 540L603 495L691 495L691 450L650 450L650 405L654 405L654 360L755 360L755 315L611 315L611 270L616 270L616 225L754 225L754 180L777 180L777 135L605 135L605 90L728 90L728 45L709 45L709 0L960 0L960 45L960 45L960 90L960 90L960 135L960 135L960 180L960 180L960 225L960 225L960 270L960 270L960 315L960 315L960 360L960 360L960 405L960 405L960 450L960 450L960 495L960 495L960 540L960 540Z" fill="#373e40"></path><path d="M735 540L758 540L758 495L832 495L832 450L735 450L735 405L819 405L819 360L806 360L806 315L803 315L803 270L718 270L718 225L827 225L827 180L811 180L811 135L698 135L698 90L753 90L753 45L713 45L713 0L960 0L960 45L960 45L960 90L960 90L960 135L960 135L960 180L960 180L960 225L960 225L960 270L960 270L960 315L960 315L960 360L960 360L960 405L960 405L960 450L960 450L960 495L960 495L960 540L960 540Z" fill="#222a2d"></path><path d="M906 540L923 540L923 495L840 495L840 450L825 450L825 405L925 405L925 360L792 360L792 315L898 315L898 270L863 270L863 225L844 225L844 180L919 180L919 135L923 135L923 90L828 90L828 45L843 45L843 0L960 0L960 45L960 45L960 90L960 90L960 135L960 135L960 180L960 180L960 225L960 225L960 270L960 270L960 315L960 315L960 360L960 360L960 405L960 405L960 450L960 450L960 495L960 495L960 540L960 540Z" fill="#0e181a"></path></svg>