<svg id="visual" viewBox="0 0 400 100" width="400" height="100" xmlns="http://www.w3.org/2000/svg" xmlns:xlink="http://www.w3.org/1999/xlink" version="1.1"><rect x="0" y="0" width="400" height="100" fill="#fff"></rect><path d="M0 70L67 70L67 76L133 76L133 69L200 69L200 72L267 72L267 78L333 78L333 75L400 75L400 88L400 0L400 0L333 0L333 0L267 0L267 0L200 0L200 0L133 0L133 0L67 0L67 0L0 0Z" fill="#e2e2e2"></path><path d="M0 62L67 62L67 66L133 66L133 58L200 58L200 57L267 57L267 58L333 58L333 50L400 50L400 54L400 0L400 0L333 0L333 0L267 0L267 0L200 0L200 0L133 0L133 0L67 0L67 0L0 0Z" fill="#949899"></path><path d="M0 44L67 44L67 30L133 30L133 37L200 37L200 46L267 46L267 38L333 38L333 39L400 39L400 26L400 0L400 0L333 0L333 0L267 0L267 0L200 0L200 0L133 0L133 0L67 0L67 0L0 0Z" fill="#4c5455"></path><path d="M0 30L67 30L67 11L133 11L133 26L200 26L200 19L267 19L267 27L333 27L333 12L400 12L400 13L400 0L400 0L333 0L333 0L267 0L267 0L200 0L200 0L133 0L133 0L67 0L67 0L0 0Z" fill="#0e181a"></path></svg>